<?xml version="1.0" encoding="utf-8"?>
<!-- Generator: Adobe Illustrator 24.1.3, SVG Export Plug-In . SVG Version: 6.00 Build 0)  -->
<svg version="1.1" id="Layer_1" xmlns="http://www.w3.org/2000/svg" xmlns:xlink="http://www.w3.org/1999/xlink" x="0px" y="0px"
	 viewBox="0 0 20 20" style="enable-background:new 0 0 20 20;" xml:space="preserve">
<style type="text/css">
	.st0{clip-path:url(#SVGID_2_);fill:#FFFFFF;}
	.st1{clip-path:url(#SVGID_4_);fill:#FFFFFF;}
	.st2{clip-path:url(#SVGID_6_);fill:#FFFFFF;}
</style>
<g>
	<defs>
		<path id="SVGID_1_" d="M9.15,4.84c-2.79,1.61-2.72,3.4,1.29,4.61c0,0-3.37-1.3,0-3.97c3.37-2.68-1.1-3.97-1.1-3.97
			S11.94,3.22,9.15,4.84"/>
	</defs>
	<use xlink:href="#SVGID_1_"  style="overflow:visible;fill:#FFFFFF;"/>
	<clipPath id="SVGID_2_">
		<use xlink:href="#SVGID_1_"  style="overflow:visible;"/>
	</clipPath>
	<polygon class="st0" points="2.57,7.46 8.23,-1.43 17.61,3.49 11.95,12.38 	"/>
</g>
<g>
	<defs>
		<path id="SVGID_3_" d="M12.6,9.9c-0.05-0.01-0.09-0.03-0.14-0.04C12.55,9.89,12.6,9.9,12.6,9.9 M11.9,6.32
			c-1.56,1.21-2.76,2.58,0.56,3.54c-0.4-0.14-1.4-0.71,0.14-2.69c1.86-2.4-0.7-2.98-0.7-2.98S13.48,5.09,11.9,6.32"/>
	</defs>
	<use xlink:href="#SVGID_3_"  style="overflow:visible;fill:#FFFFFF;"/>
	<clipPath id="SVGID_4_">
		<use xlink:href="#SVGID_3_"  style="overflow:visible;"/>
	</clipPath>
	<polygon class="st1" points="6.42,8.48 10.47,2.1 17.19,5.62 13.14,11.99 	"/>
</g>
<g>
	<defs>
		<path id="SVGID_5_" d="M2.85,10.91c0,0,0.64,0.31,1.67,0.27c0,0,0.09,2.9,0.93,4.08c0,0-0.07,0.02-0.19,0.02
			C4.68,15.28,3.06,14.92,2.85,10.91 M12.18,8.18c3.03,0.15,5.23,0.62,5.23,1.17c0,0.67-3.33,1.22-7.43,1.22s-7.43-0.55-7.43-1.22
			c0-0.53,2.04-0.98,4.89-1.15c-0.11-0.11-0.2-0.23-0.27-0.35C3.86,8.04,1.5,8.56,1.5,9.17c0,0-0.06,5.06,2.82,8.01
			c0,0,1.04,1.35,5.92,1.32c0,0,3.95-0.04,5.32-1.32c0,0,2.91-2.15,2.94-8.01c0-0.64-2.59-1.17-6.12-1.34
			C12.3,7.95,12.23,8.07,12.18,8.18"/>
	</defs>
	<use xlink:href="#SVGID_5_"  style="overflow:visible;fill:#FFFFFF;"/>
	<clipPath id="SVGID_6_">
		<use xlink:href="#SVGID_5_"  style="overflow:visible;"/>
	</clipPath>
	<path class="st2" d="M5.7,1.12L2.83,5.64c0.21,0,0.42,0,0.63,0c0.2,0,0.2,0.28,0,0.28c-0.27,0-0.54,0-0.81,0l-6.32,9.93l17.9,9.38
		l9.37-14.73L5.7,1.12z"/>
</g>
</svg>
